<?xml version="1.0" encoding="UTF-8" standalone="no"?>
<!-- Created with Inkscape (http://www.inkscape.org/) -->

<svg
   xmlns:dc="http://purl.org/dc/elements/1.1/"
   xmlns:cc="http://creativecommons.org/ns#"
   xmlns:rdf="http://www.w3.org/1999/02/22-rdf-syntax-ns#"
   xmlns:svg="http://www.w3.org/2000/svg"
   xmlns="http://www.w3.org/2000/svg"
   xmlns:sodipodi="http://sodipodi.sourceforge.net/DTD/sodipodi-0.dtd"
   xmlns:inkscape="http://www.inkscape.org/namespaces/inkscape"
   width="744.09448819"
   height="1052.3622047"
   id="svg2"
   version="1.1"
   inkscape:version="0.48.2 r9819"
   sodipodi:docname="JastEMF-Logo-new-Path_2.svg">
  <defs
     id="defs4">
    <filter
       id="filter5921"
       inkscape:label="filter1">
      <feDisplacementMap
         id="feDisplacementMap5923"
         in2="SourceGraphic"
         scale="0"
         xChannelSelector="R" />
      <feMorphology
         id="feMorphology5925"
         radius="0"
         operator="dilate" />
      <feMorphology
         id="feMorphology5927"
         radius="0"
         operator="dilate" />
      <feDiffuseLighting
         id="feDiffuseLighting5929" />
    </filter>
    <filter
       id="filter6833"
       inkscape:label="Drop shadow"
       width="1.5"
       height="1.5"
       x="-.25"
       y="-.25">
      <feGaussianBlur
         id="feGaussianBlur6835"
         in="SourceAlpha"
         stdDeviation="6.8"
         result="blur" />
      <feColorMatrix
         id="feColorMatrix6837"
         result="bluralpha"
         type="matrix"
         values="1 0 0 0 0 0 1 0 0 0 0 0 1 0 0 0 0 0 0.341 0 " />
      <feOffset
         id="feOffset6839"
         in="bluralpha"
         dx="7.4"
         dy="4"
         result="offsetBlur" />
      <feMerge
         id="feMerge6841">
        <feMergeNode
           id="feMergeNode6843"
           in="offsetBlur" />
        <feMergeNode
           id="feMergeNode6845"
           in="SourceGraphic" />
      </feMerge>
    </filter>
    <filter
       id="filter6847"
       inkscape:label="Drop shadow"
       width="1.5"
       height="1.5"
       x="-.25"
       y="-.25">
      <feGaussianBlur
         id="feGaussianBlur6849"
         in="SourceAlpha"
         stdDeviation="6.8"
         result="blur" />
      <feColorMatrix
         id="feColorMatrix6851"
         result="bluralpha"
         type="matrix"
         values="1 0 0 0 0 0 1 0 0 0 0 0 1 0 0 0 0 0 0.341 0 " />
      <feOffset
         id="feOffset6853"
         in="bluralpha"
         dx="7.4"
         dy="4"
         result="offsetBlur" />
      <feMerge
         id="feMerge6855">
        <feMergeNode
           id="feMergeNode6857"
           in="offsetBlur" />
        <feMergeNode
           id="feMergeNode6859"
           in="SourceGraphic" />
      </feMerge>
    </filter>
  </defs>
  <sodipodi:namedview
     id="base"
     pagecolor="#ffffff"
     bordercolor="#666666"
     borderopacity="1.0"
     inkscape:pageopacity="0.0"
     inkscape:pageshadow="2"
     inkscape:zoom="0.91"
     inkscape:cx="286.09643"
     inkscape:cy="656.04348"
     inkscape:document-units="px"
     inkscape:current-layer="layer1"
     showgrid="false"
     inkscape:snap-global="false"
     inkscape:snap-grids="false"
     inkscape:snap-to-guides="false"
     inkscape:object-nodes="true"
     inkscape:window-width="1600"
     inkscape:window-height="1138"
     inkscape:window-x="1272"
     inkscape:window-y="-8"
     inkscape:window-maximized="1"
     showguides="true"
     inkscape:guide-bbox="true">
    <inkscape:grid
       type="xygrid"
       id="grid2998" />
  </sodipodi:namedview>
  <metadata
     id="metadata7">
    <rdf:RDF>
      <cc:Work
         rdf:about="">
        <dc:format>image/svg+xml</dc:format>
        <dc:type
           rdf:resource="http://purl.org/dc/dcmitype/StillImage" />
        <dc:title />
      </cc:Work>
    </rdf:RDF>
  </metadata>
  <g
     inkscape:label="Layer 1"
     inkscape:groupmode="layer"
     id="layer1">
    <path
       style="fill:#442178;fill-opacity:1;filter:url(#filter6833)"
       d="M 506.9375 336.4375 C 506.99563 339.54704 511.7809 347.03612 511.8125 349.5625 C 511.81489 349.75351 511.8089 349.90927 511.8125 350.09375 L 345.78125 350.09375 L 338.125 337.375 L 159.15625 337.46875 L 136 407.3125 L 136.875 413.125 L 335.1875 413.125 L 342.78125 371.4375 L 511.3125 371.4375 L 507.28125 383.5625 L 539.59375 360.59375 L 506.9375 336.4375 z "
       id="rect3166" />
    <path
       style="fill:#ffcc00;fill-opacity:1;filter:url(#filter6847)"
       d="M 326.6875 371.46875 L 314.5625 403.5 L 312.9375 404.6875 L 129.9375 404.6875 C 129.98314 404.55585 130.01472 404.44824 130.0625 404.3125 L 134.625 391.28125 L 101.71875 414.375 L 134.15625 438.40625 C 134.15317 435.35314 129.44166 428.66494 129.28125 426.03125 L 300.125 426.03125 L 308.34375 437.875 L 482.03125 437.875 L 504.71875 371.46875 L 326.6875 371.46875 z "
       id="rect2993" />
    <g
       transform="matrix(1.0634568,0,-0.32594349,0.94032969,-8.7804879,60.487805)"
       style="font-size:76.52294922px;font-style:normal;font-weight:normal;line-height:125%;letter-spacing:0px;word-spacing:0px;fill:#ffcc00;fill-opacity:1;stroke:none;font-family:Sans"
       id="text3020">
      <g
         transform="matrix(1.0716277,0,-0.0359084,0.9331599,-4.3382041,4.2538272)"
         style="font-size:86.00143433px;line-height:125%;fill:#442178;fill-opacity:1;font-family:Sans"
         id="text3071">
        <path
           d="m 451.67905,416.59299 -38.46549,0 0,-62.69538 37.2477,0 0,9.91032 -26.66549,0 0,15.11744 24.60783,0 0,9.86833 -24.60783,0 0,17.88897 27.88328,0 0,9.91032"
           style="font-variant:normal;font-weight:bold;font-stretch:normal;fill:#442178;fill-opacity:1;font-family:Helvetica CY;-inkscape-font-specification:Helvetica CY Bold"
           id="path3065"
           inkscape:connector-curvature="0" />
        <path
           d="m 509.37728,416.59299 -10.58221,0 0,-50.72741 -9.11246,50.72741 -10.5822,0 -9.23844,-50.72741 0,50.72741 -10.54021,0 0,-62.69538 15.45338,0 9.57438,48.16584 9.61637,-48.16584 15.41139,0 0,62.69538"
           style="font-variant:normal;font-weight:bold;font-stretch:normal;fill:#442178;fill-opacity:1;font-family:Helvetica CY;-inkscape-font-specification:Helvetica CY Bold"
           id="path3067"
           inkscape:connector-curvature="0" />
        <path
           d="m 554.81359,363.80793 -25.53168,0 0,15.11744 22.4242,0 0,9.86833 -22.4242,0 0,27.79929 -10.58221,0 0,-62.69538 36.11389,0 0,9.91032"
           style="font-variant:normal;font-weight:bold;font-stretch:normal;fill:#442178;fill-opacity:1;font-family:Helvetica CY;-inkscape-font-specification:Helvetica CY Bold"
           id="path3069"
           inkscape:connector-curvature="0" />
      </g>
      <g
         transform="matrix(1.0835022,0,-0.0578955,0.92293306,-5.7169798,-6.3807408)"
         style="font-size:89.38846588px;line-height:125%;fill:#ffcc00;fill-opacity:1;font-family:Sans"
         id="text3075">
        <path
           d="m 295.17319,382.13093 c -4e-5,5.09213 -1.58587,9.3113 -4.75749,12.65755 -3.17169,3.34624 -7.30358,5.01937 -12.39567,5.01937 -5.5286,0 -9.74777,-1.78952 -12.65755,-5.36855 -2.7061,-3.28804 -4.05914,-7.75455 -4.05914,-13.39954 l 0,-7.41994 10.99897,0 0,8.24923 c -10e-6,5.00483 1.8186,7.50724 5.45584,7.50723 4.27736,10e-6 6.41604,-2.4442 6.41607,-7.33264 l 0,-49.53902 10.99897,0 0,49.62631"
           style="font-variant:normal;font-weight:bold;font-stretch:normal;fill:#ffcc00;fill-opacity:1;font-family:Helvetica CY;-inkscape-font-specification:Helvetica CY Bold"
           id="path3056"
           inkscape:connector-curvature="0" />
        <path
           d="m 338.8199,397.66916 -10.91168,0 c -0.72747,-1.22211 -1.09119,-2.677 -1.09117,-4.36467 l 0,-0.48012 c -3.81183,4.59746 -8.01646,6.89618 -12.6139,6.89618 -3.98641,0 -7.01258,-1.38214 -9.07851,-4.14643 -1.86227,-2.44421 -2.79339,-5.73226 -2.79339,-9.86416 0,-4.59744 1.04752,-8.07462 3.14256,-10.43156 1.57128,-1.77495 4.23372,-3.27348 7.98735,-4.49562 l 10.69344,-3.49173 c 1.71675,-0.72742 2.57513,-2.34234 2.57516,-4.84479 -3e-5,-3.92816 -2.08052,-5.89226 -6.24148,-5.8923 -4.53927,4e-5 -6.95439,2.92436 -7.24535,8.77299 l -9.64593,0 c 0,-11.26081 5.48493,-16.89123 16.45481,-16.89128 10.94075,5e-5 16.41113,5.12126 16.41117,15.36364 l 0,26.44991 c -4e-5,2.15324 0.7856,4.05915 2.35692,5.71772 l 0,1.70222 m -12.09014,-19.11726 0,-4.58291 c -1.89138,1.10574 -5.04849,2.26965 -9.47134,3.49174 -1.25122,0.34919 -2.34239,1.13483 -3.2735,2.35692 -0.90205,1.22213 -1.35306,2.48788 -1.35305,3.79727 -10e-6,4.53927 1.68766,6.80889 5.06302,6.80888 6.02322,10e-6 9.03484,-3.95729 9.03487,-11.8719"
           style="font-variant:normal;font-weight:bold;font-stretch:normal;fill:#ffcc00;fill-opacity:1;font-family:Helvetica CY;-inkscape-font-specification:Helvetica CY Bold"
           id="path3058"
           inkscape:connector-curvature="0" />
        <path
           d="m 379.2804,382.5674 c -4e-5,11.43544 -6.06693,17.15315 -18.20068,17.15315 -5.15033,0 -9.32586,-1.41124 -12.52661,-4.23373 -3.31715,-2.93887 -5.04847,-6.95436 -5.19395,-12.04649 l 10.12603,0 c 1.33849,5.26671 4.30646,7.90006 8.90393,7.90006 1.74585,0 3.25893,-0.71289 4.53926,-2.13869 1.16389,-1.2803 1.74584,-2.60425 1.74587,-3.97185 -3e-5,-2.73518 -1.41127,-4.58289 -4.23373,-5.54314 l -10.34427,-3.49173 c -6.19784,-2.09502 -9.29676,-6.16871 -9.29675,-12.22108 -1e-5,-10.35878 5.51402,-15.53818 16.5421,-15.53823 5.0339,5e-5 9.12213,1.48403 12.26473,4.45196 3.14252,2.96802 4.7138,6.95442 4.71384,11.9592 l -9.9078,0 c -0.20371,-5.23757 -2.77887,-7.85637 -7.72547,-7.85641 -1.5131,4e-5 -2.86615,0.5238 -4.05914,1.57129 -1.28032,1.10575 -1.92047,2.4006 -1.92046,3.88455 -10e-6,2.35696 0.81472,3.81185 2.44422,4.36467 l 12.83213,4.32103 c 2.2696,0.75657 4.27734,2.05142 6.02325,3.88456 2.18229,2.26964 3.27346,4.7866 3.2735,7.55088"
           style="font-variant:normal;font-weight:bold;font-stretch:normal;fill:#ffcc00;fill-opacity:1;font-family:Helvetica CY;-inkscape-font-specification:Helvetica CY Bold"
           id="path3060"
           inkscape:connector-curvature="0" />
        <path
           d="m 404.15903,358.86723 -5.71772,0 0,27.89025 c -2e-5,2.7934 0.56739,4.19009 1.70222,4.19009 l 3.84091,0 0.45025,8.39063 c -1.89138,0.78564 -4.27663,0.38235 -6.25526,0.38235 -2.7934,0 -5.16487,-0.91658 -7.11442,-2.74974 -1.94956,-1.83316 -2.92433,-4.13188 -2.92433,-6.89618 l 0,-31.2074 -4.97572,0 0,-9.64592 4.97572,0 0,-12.17743 10.30063,0 0,12.17743 5.71772,0 0,9.64592"
           style="font-variant:normal;font-weight:bold;font-stretch:normal;fill:#ffcc00;fill-opacity:1;font-family:Helvetica CY;-inkscape-font-specification:Helvetica CY Bold"
           id="path3062"
           inkscape:connector-curvature="0"
           sodipodi:nodetypes="ccssccsssccccccccc" />
      </g>
    </g>
  </g>
</svg>
